# File created by Blade
# Date/Time:  Tue Apr 07 20:57:09 2015
# Frame Rate: 120.000 fps
#------------------------------------------------------
:FULLY-SPECIFIED
:DEGREES
535
root -26.450744 33.505925 8.519261 59.787583 -88.235016 -46.219977
Spine -9.915337 -7.135367 2.368695
Head 11.678378 -2.132115 0.052523
LeftShoulder -15.972030 15.222602 43.895938
LeftArm 122.737985 -59.654786 -74.214402
LeftForeArm 21.581326 0.000000 19.758678
LeftHand 5.373214 -0.000000 20.283105
LeftHandThumb1 -26.253704 0.000000 33.147579
RightShoulder -19.816925 39.401760 -62.912298
RightArm 57.423735 25.571128 42.340566
RightForeArm -19.712179 -0.000000 22.385122
RightHand 18.701036 -0.000000 -33.497972
RightHandThumb1 -24.326973 -0.000000 -32.862282
LeftUpLeg -6.173018 -9.888448 1.226121
LeftLeg -8.268037 -0.000000 0.000000
LeftFoot 1.441131 13.845665 -11.070775
LeftToeBase -15.441493 -0.000000 0.000000
RightUpLeg -7.871716 2.040762 3.753254
RightLeg -5.943330 -0.000000 0.000000
RightFoot 2.291281 -9.384396 0.754025
RightToeBase -10.412922 -0.000000 0.000000
536
root -26.294024 33.511687 8.532135 62.057463 -88.288265 -48.086414
Spine -9.641246 -7.104530 2.424472
Head 10.667734 -2.182290 -0.008027
LeftShoulder -15.824767 14.988384 43.785352
LeftArm 123.028269 -59.159706 -74.214372
LeftForeArm 21.366094 0.000000 19.517066
LeftHand 5.133689 -0.000000 19.774436
LeftHandThumb1 -26.253704 0.000000 33.147579
RightShoulder -19.840663 39.858498 -63.076945
RightArm 57.317473 25.366249 43.220524
RightForeArm -20.164638 -0.000000 23.240442
RightHand 18.692291 -0.000000 -33.077269
RightHandThumb1 -24.326973 -0.000000 -32.862282
LeftUpLeg -6.939279 -10.019218 1.334957
LeftLeg -8.153077 -0.000000 0.000000
LeftFoot 1.630789 14.077857 -10.917610
LeftToeBase -15.595384 -0.000000 0.000000
RightUpLeg -8.647363 2.271877 3.643951
RightLeg -5.775323 -0.000000 0.000000
RightFoot 2.424099 -9.353659 0.760682
RightToeBase -10.232497 -0.000000 0.000000
537
root -26.125120 33.517403 8.546181 65.609730 -88.322452 -51.205417
Spine -9.369672 -7.082430 2.522787
Head 9.639722 -2.195420 -0.008691
LeftShoulder -15.655226 14.823886 43.664856
LeftArm 123.199624 -58.689495 -74.118850
LeftForeArm 21.160387 -0.000000 19.283264
LeftHand 4.976616 -0.000000 19.221505
LeftHandThumb1 -26.253704 0.000000 33.147579
RightShoulder -19.755587 40.351406 -63.127655
RightArm 57.196283 25.052943 43.942904
RightForeArm -20.303132 -0.000000 24.093411
RightHand 18.552703 -0.000000 -32.234028
RightHandThumb1 -24.326973 -0.000000 -32.862282
LeftUpLeg -7.756893 -10.093478 1.477447
LeftLeg -8.031033 -0.000000 0.000000
LeftFoot 1.794358 14.279139 -10.826652
LeftToeBase -15.531432 -0.000000 0.000000
RightUpLeg -9.472145 2.516252 3.556389
RightLeg -5.617093 -0.000000 0.000000
RightFoot 2.610871 -9.326048 0.760799
RightToeBase -10.069695 -0.000000 0.000000
538
root -25.942057 33.524202 8.560449 70.636718 -88.367909 -55.754960
Spine -9.088014 -7.015059 2.619830
Head 8.480572 -2.087202 0.023851
LeftShoulder -15.515839 14.674911 43.541301
LeftArm 123.111202 -58.243887 -73.700137
LeftForeArm 20.857141 -0.000000 18.972287
LeftHand 4.809330 -0.000000 19.025766
LeftHandThumb1 -26.253704 0.000000 33.147579
RightShoulder -19.641647 40.786368 -63.132672
RightArm 57.110947 24.701351 44.674294
RightForeArm -20.478258 -0.000000 24.910337
RightHand 18.647225 -0.000000 -31.309646
RightHandThumb1 -24.326973 -0.000000 -32.862282
LeftUpLeg -8.648023 -10.090733 1.626742
LeftLeg -7.888064 -0.000000 0.000000
LeftFoot 1.966742 14.456494 -10.788365
LeftToeBase -15.493457 -0.000000 0.000000
RightUpLeg -10.381980 2.762855 3.470541
RightLeg -5.434680 -0.000000 0.000000
RightFoot 2.779303 -9.305989 0.829320
RightToeBase -9.843590 -0.000000 0.000000
539
root -25.746406 33.531283 8.576795 76.256128 -88.406258 -60.873634
Spine -8.793862 -7.001144 2.752545
Head 7.273583 -2.070876 0.007082
LeftShoulder -15.352577 14.494156 43.379967
LeftArm 123.117227 -57.725586 -73.410290
LeftForeArm 20.945394 -0.000000 18.566054
LeftHand 4.961561 -0.000000 17.600937
LeftHandThumb1 -26.253704 0.000000 33.147579
RightShoulder -19.480029 41.232281 -63.164727
RightArm 57.104704 24.253172 45.539076
RightForeArm -20.482762 -0.000000 25.612441
RightHand 18.673307 -0.000000 -29.300605
RightHandThumb1 -24.326973 -0.000000 -32.862282
LeftUpLeg -9.592335 -10.003698 1.757572
LeftLeg -7.722011 -0.000000 0.000000
LeftFoot 2.153527 14.595363 -10.727058
LeftToeBase -15.397638 -0.000000 0.000000
RightUpLeg -11.337610 3.021870 3.380188
RightLeg -5.258160 -0.000000 0.000000
RightFoot 3.097364 -9.315958 0.668288
RightToeBase -9.913525 -0.000000 0.000000
540
root -25.536221 33.539381 8.594518 83.719380 -88.452145 -67.812759
Spine -8.463092 -6.969876 2.862621
Head 6.038703 -1.907519 -0.018403
LeftShoulder -15.212065 14.399405 43.171757
LeftArm 122.936860 -57.281485 -72.764738
LeftForeArm 20.953076 -0.000000 18.067790
LeftHand 4.649786 -0.000000 16.306138
LeftHandThumb1 -26.253704 0.000000 33.147579
RightShoulder -19.392002 41.843574 -63.280831
RightArm 56.952320 23.496770 46.208477
RightForeArm -20.281186 -0.000000 26.104062
RightHand 18.888057 -0.000000 -28.093669
RightHandThumb1 -24.326973 -0.000000 -32.862282
LeftUpLeg -10.589149 -9.799779 1.864515
LeftLeg -7.538152 -0.000000 0.000000
LeftFoot 2.380205 14.662428 -10.674051
LeftToeBase -15.352624 -0.000000 0.000000
RightUpLeg -12.361680 3.252523 3.285977
RightLeg -5.057753 -0.000000 0.000000
RightFoot 3.348221 -9.302497 0.688876
RightToeBase -9.733258 -0.000000 0.000000
541
root -25.314422 33.547986 8.614127 92.046833 -88.477363 -75.591982
Spine -8.110339 -6.972773 2.980545
Head 4.802917 -1.779575 -0.039700
LeftShoulder -15.033974 14.225955 43.014429
LeftArm 122.201091 -56.829610 -71.546137
LeftForeArm 20.754888 -0.000000 17.438586
LeftHand 4.286103 -0.000000 15.360100
LeftHandThumb1 -26.253704 0.000000 33.147579
RightShoulder -19.250225 42.463362 -63.410982
RightArm 56.822818 22.761260 47.167095
RightForeArm -20.205874 -0.000000 26.619551
RightHand 18.819233 -0.000000 -27.270455
RightHandThumb1 -24.326973 -0.000000 -32.862282
LeftUpLeg -11.637836 -9.486807 1.938948
LeftLeg -7.327328 -0.000000 0.000000
LeftFoot 2.636630 14.667220 -10.566241
LeftToeBase -15.277018 -0.000000 0.000000
RightUpLeg -13.433535 3.434546 3.204813
RightLeg -4.854602 -0.000000 0.000000
RightFoot 3.640556 -9.282274 0.648899
RightToeBase -9.511886 -0.000000 0.000000
542
root -25.084088 33.556888 8.637084 101.766974 -88.501293 -84.763886
Spine -7.758079 -6.968306 3.064888
Head 3.539634 -1.492858 -0.133363
LeftShoulder -14.732308 14.317743 42.781866
LeftArm 121.737465 -56.553701 -70.469878
LeftForeArm 20.459680 -0.000000 16.729648
LeftHand 3.942700 -0.000000 13.983875
LeftHandThumb1 -26.253704 0.000000 33.147579
RightShoulder -18.917713 42.903367 -63.371119
RightArm 56.796772 21.995365 48.104895
RightForeArm -20.017525 -0.000000 26.963507
RightHand 18.931500 -0.000000 -26.384578
RightHandThumb1 -24.326973 -0.000000 -32.862282
LeftUpLeg -12.685772 -9.172274 1.973011
LeftLeg -7.137480 -0.000000 0.000000
LeftFoot 2.910452 14.725232 -10.474043
LeftToeBase -15.082423 -0.000000 0.000000
RightUpLeg -14.529203 3.609621 3.094810
RightLeg -4.634208 -0.000000 0.000000
RightFoot 4.005501 -9.201152 0.510212
RightToeBase -9.261021 -0.000000 0.000000
543
root -24.841210 33.565567 8.662409 111.615196 -88.491433 -94.032756
Spine -7.351638 -6.970797 3.143444
Head 2.201205 -1.547528 -0.138110
LeftShoulder -14.468246 14.351123 42.548685
LeftArm 120.895105 -56.308215 -68.985436
LeftForeArm 20.408691 -0.000000 16.064760
LeftHand 3.101795 0.000000 12.165045
LeftHandThumb1 -26.253704 0.000000 33.147579
RightShoulder -18.623973 43.372042 -63.372979
RightArm 56.678463 21.047938 48.934664
RightForeArm -19.922903 -0.000000 27.240494
RightHand 18.963231 -0.000000 -25.567849
RightHandThumb1 -24.326973 -0.000000 -32.862282
LeftUpLeg -13.798014 -8.793478 1.972953
LeftLeg -6.922929 -0.000000 0.000000
LeftFoot 3.257142 14.743651 -10.301452
LeftToeBase -15.017089 -0.000000 0.000000
RightUpLeg -15.695882 3.732643 2.995934
RightLeg -4.387614 -0.000000 0.000000
RightFoot 4.390716 -9.181601 0.322374
RightToeBase -9.274515 -0.000000 0.000000
